<?xml version="1.0" encoding="UTF-8"?>
<svg xmlns="http://www.w3.org/2000/svg" xmlns:xlink="http://www.w3.org/1999/xlink" viewBox="0 0 64 64" width="64px" height="64px">
<g id="surface78649699">
<path style=" stroke:none;fill-rule:nonzero;fill:rgb(100%,11.764706%,47.843137%);fill-opacity:1;" d="M 32 6 C 17.640625 6 6 17.640625 6 32 C 6 46.359375 17.640625 58 32 58 C 46.359375 58 58 46.359375 58 32 C 58 17.640625 46.359375 6 32 6 Z M 49.488281 18.671875 C 52.226562 22.257812 53.886719 26.707031 53.988281 31.535156 C 49.507812 30.6875 44.328125 30.273438 38.832031 31.382812 C 38.175781 29.859375 37.484375 28.34375 36.746094 26.835938 C 43.210938 24.132812 47.332031 20.777344 49.488281 18.671875 Z M 46.765625 15.707031 C 44.894531 17.515625 41.046875 20.660156 34.859375 23.203125 C 32.488281 18.839844 29.785156 14.601562 26.800781 10.628906 C 28.46875 10.21875 30.207031 10 32 10 C 37.675781 10 42.859375 12.160156 46.765625 15.707031 Z M 22.824219 12.011719 C 25.878906 15.96875 28.644531 20.199219 31.054688 24.574219 C 25.660156 26.277344 18.882812 27.414062 10.550781 27.125 C 12.078125 20.398438 16.695312 14.839844 22.824219 12.011719 Z M 10 32 C 10 31.699219 10.011719 31.402344 10.023438 31.105469 C 11.136719 31.148438 12.230469 31.179688 13.292969 31.179688 C 21.203125 31.179688 27.710938 29.960938 32.976562 28.230469 C 33.667969 29.621094 34.316406 31.019531 34.929688 32.425781 C 28.664062 34.523438 22.117188 38.835938 15.828125 46.898438 C 12.214844 42.976562 10 37.742188 10 32 Z M 18.804688 49.589844 C 24.660156 41.996094 30.667969 37.992188 36.457031 36.113281 C 38.554688 41.523438 40.050781 46.945312 40.84375 52.140625 C 38.132812 53.332031 35.144531 54 32 54 C 27.050781 54 22.480469 52.355469 18.804688 49.589844 Z M 44.5625 50.042969 C 43.710938 45.183594 42.28125 40.160156 40.367188 35.148438 C 45.09375 34.324219 49.609375 34.738281 53.710938 35.554688 C 52.734375 41.535156 49.339844 46.710938 44.5625 50.042969 Z M 44.5625 50.042969 "/>
</g>
</svg>
